<?xml version="1.0" encoding="utf-8"?>
<!-- Generator: Adobe Illustrator 16.0.0, SVG Export Plug-In . SVG Version: 6.00 Build 0)  -->
<!DOCTYPE svg PUBLIC "-//W3C//DTD SVG 1.1//EN" "http://www.w3.org/Graphics/SVG/1.1/DTD/svg11.dtd">
<svg version="1.1" id="Layer_1" xmlns="http://www.w3.org/2000/svg" xmlns:xlink="http://www.w3.org/1999/xlink" x="0px" y="0px"
	 width="1080.108px" height="243.024px" viewBox="0 0 1080.108 243.024" enable-background="new 0 0 1080.108 243.024"
	 xml:space="preserve">
<text transform="matrix(1 0 0 1 151.1582 195.2441)" fill="#F26E59" font-family="'TwCenMT-Regular'" font-size="175.5446">modernify.ca</text>
<g>
	<path fill="#F26E59" stroke="#F26E59" stroke-width="4" stroke-miterlimit="10" d="M21.551,195.244h11.8l40.938-52.784
		c-2.666-1.629-5.129-3.558-7.357-5.728L21.551,195.244z"/>
	<path fill="#F26E59" stroke="#F26E59" stroke-width="4" stroke-miterlimit="10" d="M91.189,148.254v46.99h9.325v-46.99
		c-1.531,0.171-3.085,0.268-4.661,0.268C94.276,148.521,92.72,148.425,91.189,148.254z"/>
	<path fill="#F26E59" stroke="#F26E59" stroke-width="4" stroke-miterlimit="10" d="M80.062,135.02l11.128-14.348v18.146
		c1.526,0.224,3.077,0.379,4.664,0.379c1.588,0,3.136-0.155,4.661-0.379V93.435L72.7,129.296
		C74.858,131.54,77.334,133.473,80.062,135.02z"/>
	<path fill="#F26E59" stroke="#F26E59" stroke-width="4" stroke-miterlimit="10" d="M66.932,136.732
		c2.229,2.17,4.691,4.099,7.357,5.728l5.772-7.44c-2.728-1.547-5.203-3.479-7.361-5.724L66.932,136.732z"/>
	<path fill="#F26E59" stroke="#F26E59" stroke-width="4" stroke-miterlimit="10" d="M91.189,138.818v9.436
		c1.53,0.171,3.087,0.268,4.664,0.268c1.576,0,3.13-0.097,4.661-0.268v-9.436c-1.525,0.224-3.073,0.379-4.661,0.379
		C94.267,139.197,92.716,139.042,91.189,138.818z"/>
	<path fill="#F26E59" stroke="#F26E59" stroke-width="4" stroke-miterlimit="10" d="M157.926,92.211
		c0-30.804-25.058-55.859-55.856-55.859c-30.8,0-55.859,25.056-55.859,55.859c0,14.276,5.403,27.3,14.244,37.181l7.883-10.128
		c-5.967-7.418-9.567-16.813-9.567-27.053c0-23.877,19.422-43.299,43.3-43.299c23.872,0,43.296,19.422,43.296,43.299
		c0,20.973-15.022,38.42-34.853,42.367v12.834C137.317,143.328,157.926,120.14,157.926,92.211z"/>
</g>
</svg>
