<?xml version="1.0" encoding="utf-8"?>
<!-- Generator: Adobe Illustrator 16.0.0, SVG Export Plug-In . SVG Version: 6.00 Build 0)  -->
<!DOCTYPE svg PUBLIC "-//W3C//DTD SVG 1.1//EN" "http://www.w3.org/Graphics/SVG/1.1/DTD/svg11.dtd">
<svg version="1.1" id="Layer_1" xmlns="http://www.w3.org/2000/svg" xmlns:xlink="http://www.w3.org/1999/xlink" x="0px" y="0px"
	 width="228.234px" height="57.059px" viewBox="0 0 228.234 57.059" enable-background="new 0 0 228.234 57.059"
	 xml:space="preserve">
<text transform="matrix(1 0 0 1 32.041 45.1807)" fill="#F26E59" font-family="'TwCenMT-Regular'" font-size="37.5686">modernify.ca</text>
<g>
	<path fill="#F26E59" stroke="#F26E59" stroke-width="0.856" stroke-miterlimit="10" d="M4.303,45.18h2.525l8.761-11.296
		c-0.57-0.35-1.097-0.762-1.574-1.226L4.303,45.18z"/>
	<path fill="#F26E59" stroke="#F26E59" stroke-width="0.856" stroke-miterlimit="10" d="M19.207,35.123V45.18h1.995V35.123
		c-0.328,0.037-0.66,0.057-0.998,0.057S19.534,35.16,19.207,35.123z"/>
	<path fill="#F26E59" stroke="#F26E59" stroke-width="0.856" stroke-miterlimit="10" d="M16.824,32.291l2.383-3.07v3.884
		c0.326,0.047,0.657,0.081,0.997,0.081s0.672-0.034,0.998-0.081v-9.713l-5.953,7.675C15.711,31.545,16.241,31.959,16.824,32.291z"/>
	<path fill="#F26E59" stroke="#F26E59" stroke-width="0.856" stroke-miterlimit="10" d="M14.015,32.658
		c0.478,0.464,1.004,0.876,1.574,1.226l1.235-1.593c-0.583-0.332-1.113-0.746-1.575-1.225L14.015,32.658z"/>
	<path fill="#F26E59" stroke="#F26E59" stroke-width="0.856" stroke-miterlimit="10" d="M19.207,33.104v2.019
		c0.327,0.037,0.659,0.057,0.997,0.057s0.67-0.02,0.998-0.057v-2.019c-0.326,0.047-0.658,0.081-0.998,0.081
		S19.533,33.151,19.207,33.104z"/>
	<path fill="#F26E59" stroke="#F26E59" stroke-width="0.856" stroke-miterlimit="10" d="M33.489,23.13
		c0-6.593-5.363-11.955-11.954-11.955c-6.593,0-11.955,5.362-11.955,11.955c0,3.055,1.156,5.842,3.049,7.956l1.687-2.168
		c-1.277-1.587-2.048-3.597-2.048-5.788c0-5.11,4.156-9.268,9.268-9.268c5.108,0,9.265,4.157,9.265,9.268
		c0,4.488-3.215,8.222-7.459,9.065v2.748C29.078,34.068,33.489,29.106,33.489,23.13z"/>
</g>
</svg>
