<?xml version="1.0" encoding="utf-8"?>
<!-- Generator: Adobe Illustrator 16.0.0, SVG Export Plug-In . SVG Version: 6.00 Build 0)  -->
<!DOCTYPE svg PUBLIC "-//W3C//DTD SVG 1.1//EN" "http://www.w3.org/Graphics/SVG/1.1/DTD/svg11.dtd">
<svg version="1.1" id="Layer_1" xmlns="http://www.w3.org/2000/svg" xmlns:xlink="http://www.w3.org/1999/xlink" x="0px" y="0px"
	 width="912.092px" height="228.022px" viewBox="0 0 912.092 228.022" enable-background="new 0 0 912.092 228.022"
	 xml:space="preserve">
<rect x="-40.055" y="-8.719" fill="#F26E59" stroke="#F26E59" stroke-width="3.1555" stroke-miterlimit="10" width="1080.108" height="243.024"/>
<g>
	<text transform="matrix(1 0 0 1 130.0117 172.3213)" fill="#FFFFFF" font-family="'TwCenMT-Regular'" font-size="147.6462">modernify.ca</text>
	<g>
		<path fill="#FFFFFF" stroke="#FFFFFF" stroke-width="2.654" stroke-miterlimit="10" d="M21.002,172.321h9.925l34.432-44.396
			c-2.242-1.37-4.313-2.992-6.188-4.817L21.002,172.321z"/>
		<path fill="#FFFFFF" stroke="#FFFFFF" stroke-width="2.654" stroke-miterlimit="10" d="M79.573,132.799v39.522h7.843v-39.522
			c-1.287,0.144-2.594,0.226-3.92,0.226S80.86,132.942,79.573,132.799z"/>
		<path fill="#FFFFFF" stroke="#FFFFFF" stroke-width="2.654" stroke-miterlimit="10" d="M70.214,121.668l9.359-12.067v15.262
			c1.284,0.188,2.588,0.319,3.923,0.319c1.336,0,2.638-0.131,3.92-0.319v-38.17l-23.394,30.161
			C65.838,118.741,67.92,120.366,70.214,121.668z"/>
		<path fill="#FFFFFF" stroke="#FFFFFF" stroke-width="2.654" stroke-miterlimit="10" d="M59.171,123.108
			c1.874,1.825,3.945,3.447,6.188,4.817l4.855-6.258c-2.294-1.302-4.376-2.927-6.191-4.814L59.171,123.108z"/>
		<path fill="#FFFFFF" stroke="#FFFFFF" stroke-width="2.654" stroke-miterlimit="10" d="M79.573,124.862v7.937
			c1.287,0.144,2.597,0.226,3.923,0.226s2.633-0.082,3.92-0.226v-7.937c-1.282,0.188-2.584,0.319-3.92,0.319
			C82.161,125.182,80.857,125.051,79.573,124.862z"/>
		<path fill="#FFFFFF" stroke="#FFFFFF" stroke-width="2.654" stroke-miterlimit="10" d="M135.703,85.663
			c0-25.908-21.075-46.982-46.979-46.982c-25.905,0-46.982,21.074-46.982,46.982c0,12.007,4.545,22.961,11.98,31.271l6.63-8.519
			c-5.019-6.239-8.047-14.142-8.047-22.753c0-20.083,16.335-36.418,36.419-36.418c20.078,0,36.415,16.335,36.415,36.418
			c0,17.639-12.636,32.313-29.314,35.633v10.795C118.37,128.656,135.703,109.153,135.703,85.663z"/>
	</g>
</g>
</svg>
