<?xml version="1.0" encoding="utf-8"?>
<!-- Generator: Adobe Illustrator 16.0.0, SVG Export Plug-In . SVG Version: 6.00 Build 0)  -->
<!DOCTYPE svg PUBLIC "-//W3C//DTD SVG 1.1//EN" "http://www.w3.org/Graphics/SVG/1.1/DTD/svg11.dtd">
<svg version="1.1" id="Layer_1" xmlns="http://www.w3.org/2000/svg" xmlns:xlink="http://www.w3.org/1999/xlink" x="0px" y="0px"
	 width="500px" height="500px" viewBox="0 0 500 500" enable-background="new 0 0 500 500" xml:space="preserve">
<g>
	<path fill="#F26E59" stroke="#F26E59" stroke-width="4" stroke-miterlimit="10" d="M50.708,482.199h34.487l119.651-154.272
		c-7.792-4.762-14.99-10.398-21.503-16.74L50.708,482.199z"/>
	<path fill="#F26E59" stroke="#F26E59" stroke-width="4" stroke-miterlimit="10" d="M254.242,344.86v137.339h27.255V344.86
		c-4.476,0.5-9.017,0.782-13.624,0.782C263.264,345.643,258.715,345.36,254.242,344.86z"/>
	<path fill="#F26E59" stroke="#F26E59" stroke-width="4" stroke-miterlimit="10" d="M221.719,306.181l32.523-41.935v53.037
		c4.461,0.653,8.993,1.107,13.631,1.107c4.642,0,9.166-0.454,13.624-1.107V184.64l-81.294,104.813
		C206.511,296.011,213.746,301.659,221.719,306.181z"/>
	<path fill="#F26E59" stroke="#F26E59" stroke-width="4" stroke-miterlimit="10" d="M183.344,311.187
		c6.513,6.342,13.711,11.979,21.503,16.74l16.872-21.746c-7.973-4.521-15.208-10.17-21.516-16.729L183.344,311.187z"/>
	<path fill="#F26E59" stroke="#F26E59" stroke-width="4" stroke-miterlimit="10" d="M254.242,317.283v27.577
		c4.473,0.5,9.021,0.782,13.631,0.782c4.607,0,9.148-0.282,13.624-0.782v-27.577c-4.458,0.653-8.982,1.107-13.624,1.107
		C263.235,318.391,258.703,317.937,254.242,317.283z"/>
	<path fill="#F26E59" stroke="#F26E59" stroke-width="4" stroke-miterlimit="10" d="M449.293,181.063
		c0-90.031-73.236-163.262-163.252-163.262c-90.02,0-163.262,73.23-163.262,163.262c0,41.725,15.793,79.789,41.632,108.668
		l23.039-29.602c-17.438-21.68-27.962-49.141-27.962-79.066c0-69.786,56.764-126.551,126.553-126.551
		c69.771,0,126.541,56.765,126.541,126.551c0,61.297-43.906,112.29-101.863,123.826v37.51
		C389.061,330.464,449.293,262.69,449.293,181.063z"/>
</g>
</svg>
